<mxfile host="app.diagrams.net" modified="2020-11-27T03:54:18.305Z" agent="5.0 (Macintosh; Intel Mac OS X 10_15_7) AppleWebKit/537.36 (KHTML, like Gecko) Chrome/80.0.3987.149 Safari/537.36 Edg/80.0.361.69" etag="sJp_0lbwRA6KZO5hVi06" version="13.6.10" type="github">
  <diagram id="DcKS1gWii1AMZDfLGtgn" name="Page-1">
    <mxGraphModel dx="1426" dy="767" grid="1" gridSize="10" guides="1" tooltips="1" connect="1" arrows="1" fold="1" page="1" pageScale="1" pageWidth="827" pageHeight="1169" math="0" shadow="0">
      <root>
        <mxCell id="0" />
        <mxCell id="1" parent="0" />
        <mxCell id="GiRHvkRfX_-VjHIujBZW-17" style="edgeStyle=orthogonalEdgeStyle;rounded=0;orthogonalLoop=1;jettySize=auto;html=1;" edge="1" parent="1" source="GiRHvkRfX_-VjHIujBZW-1" target="GiRHvkRfX_-VjHIujBZW-7">
          <mxGeometry relative="1" as="geometry" />
        </mxCell>
        <mxCell id="GiRHvkRfX_-VjHIujBZW-18" value="View User Cases" style="edgeLabel;html=1;align=center;verticalAlign=middle;resizable=0;points=[];" vertex="1" connectable="0" parent="GiRHvkRfX_-VjHIujBZW-17">
          <mxGeometry x="0.0167" y="3" relative="1" as="geometry">
            <mxPoint y="-13" as="offset" />
          </mxGeometry>
        </mxCell>
        <mxCell id="GiRHvkRfX_-VjHIujBZW-28" style="edgeStyle=orthogonalEdgeStyle;rounded=0;orthogonalLoop=1;jettySize=auto;html=1;entryX=0;entryY=0.25;entryDx=0;entryDy=0;" edge="1" parent="1" source="GiRHvkRfX_-VjHIujBZW-1" target="GiRHvkRfX_-VjHIujBZW-16">
          <mxGeometry relative="1" as="geometry" />
        </mxCell>
        <mxCell id="GiRHvkRfX_-VjHIujBZW-29" value="Recode/Get Case &lt;br&gt;(authorization)" style="edgeLabel;html=1;align=center;verticalAlign=middle;resizable=0;points=[];" vertex="1" connectable="0" parent="GiRHvkRfX_-VjHIujBZW-28">
          <mxGeometry x="-0.1" y="2" relative="1" as="geometry">
            <mxPoint x="-29.5" y="-24.5" as="offset" />
          </mxGeometry>
        </mxCell>
        <mxCell id="GiRHvkRfX_-VjHIujBZW-35" style="edgeStyle=orthogonalEdgeStyle;rounded=0;orthogonalLoop=1;jettySize=auto;html=1;entryX=0.5;entryY=0;entryDx=0;entryDy=0;" edge="1" parent="1" source="GiRHvkRfX_-VjHIujBZW-1" target="GiRHvkRfX_-VjHIujBZW-14">
          <mxGeometry relative="1" as="geometry" />
        </mxCell>
        <mxCell id="GiRHvkRfX_-VjHIujBZW-36" value="Analytics APIs" style="edgeLabel;html=1;align=center;verticalAlign=middle;resizable=0;points=[];" vertex="1" connectable="0" parent="GiRHvkRfX_-VjHIujBZW-35">
          <mxGeometry x="-0.06" y="2" relative="1" as="geometry">
            <mxPoint as="offset" />
          </mxGeometry>
        </mxCell>
        <mxCell id="GiRHvkRfX_-VjHIujBZW-1" value="" style="strokeWidth=1;shadow=0;dashed=0;align=center;html=1;shape=mxgraph.mockup.containers.browserWindow;rSize=0;strokeColor=#666666;strokeColor2=#008cff;strokeColor3=#c4c4c4;mainText=,;recursiveResize=0;" vertex="1" parent="1">
          <mxGeometry x="440" y="500" width="290" height="120" as="geometry" />
        </mxCell>
        <mxCell id="GiRHvkRfX_-VjHIujBZW-2" value="&lt;font style=&quot;font-size: 13px&quot;&gt;Analytics&lt;/font&gt;" style="strokeWidth=1;shadow=0;dashed=0;align=center;html=1;shape=mxgraph.mockup.containers.anchor;fontSize=17;fontColor=#666666;align=left;" vertex="1" parent="GiRHvkRfX_-VjHIujBZW-1">
          <mxGeometry x="60" y="12" width="110" height="26" as="geometry" />
        </mxCell>
        <mxCell id="GiRHvkRfX_-VjHIujBZW-3" value="&lt;font style=&quot;font-size: 11px&quot;&gt;https://analytics.patsnap.com&lt;/font&gt;" style="strokeWidth=1;shadow=0;dashed=0;align=center;html=1;shape=mxgraph.mockup.containers.anchor;rSize=0;fontSize=17;fontColor=#666666;align=left;" vertex="1" parent="GiRHvkRfX_-VjHIujBZW-1">
          <mxGeometry x="120" y="60" width="160" height="26" as="geometry" />
        </mxCell>
        <mxCell id="GiRHvkRfX_-VjHIujBZW-22" style="edgeStyle=orthogonalEdgeStyle;rounded=0;orthogonalLoop=1;jettySize=auto;html=1;" edge="1" parent="1" source="GiRHvkRfX_-VjHIujBZW-7" target="GiRHvkRfX_-VjHIujBZW-15">
          <mxGeometry relative="1" as="geometry" />
        </mxCell>
        <mxCell id="GiRHvkRfX_-VjHIujBZW-23" value="Case APIs(user role)" style="edgeLabel;html=1;align=center;verticalAlign=middle;resizable=0;points=[];" vertex="1" connectable="0" parent="GiRHvkRfX_-VjHIujBZW-22">
          <mxGeometry x="-0.04" y="1" relative="1" as="geometry">
            <mxPoint as="offset" />
          </mxGeometry>
        </mxCell>
        <mxCell id="GiRHvkRfX_-VjHIujBZW-7" value="" style="strokeWidth=1;shadow=0;dashed=0;align=center;html=1;shape=mxgraph.mockup.containers.browserWindow;rSize=0;strokeColor=#666666;strokeColor2=#008cff;strokeColor3=#c4c4c4;mainText=,;recursiveResize=0;" vertex="1" parent="1">
          <mxGeometry x="30" y="500" width="290" height="120" as="geometry" />
        </mxCell>
        <mxCell id="GiRHvkRfX_-VjHIujBZW-8" value="&lt;font style=&quot;font-size: 13px&quot;&gt;Passport&lt;/font&gt;" style="strokeWidth=1;shadow=0;dashed=0;align=center;html=1;shape=mxgraph.mockup.containers.anchor;fontSize=17;fontColor=#666666;align=left;" vertex="1" parent="GiRHvkRfX_-VjHIujBZW-7">
          <mxGeometry x="60" y="12" width="110" height="26" as="geometry" />
        </mxCell>
        <mxCell id="GiRHvkRfX_-VjHIujBZW-9" value="&lt;font style=&quot;font-size: 11px&quot;&gt;https://analytics.patsnap.com&lt;/font&gt;" style="strokeWidth=1;shadow=0;dashed=0;align=center;html=1;shape=mxgraph.mockup.containers.anchor;rSize=0;fontSize=17;fontColor=#666666;align=left;" vertex="1" parent="GiRHvkRfX_-VjHIujBZW-7">
          <mxGeometry x="120" y="60" width="160" height="26" as="geometry" />
        </mxCell>
        <mxCell id="GiRHvkRfX_-VjHIujBZW-26" style="edgeStyle=orthogonalEdgeStyle;rounded=0;orthogonalLoop=1;jettySize=auto;html=1;" edge="1" parent="1" source="GiRHvkRfX_-VjHIujBZW-10" target="GiRHvkRfX_-VjHIujBZW-16">
          <mxGeometry relative="1" as="geometry" />
        </mxCell>
        <mxCell id="GiRHvkRfX_-VjHIujBZW-27" value="Case APIs(admin role)" style="edgeLabel;html=1;align=center;verticalAlign=middle;resizable=0;points=[];" vertex="1" connectable="0" parent="GiRHvkRfX_-VjHIujBZW-26">
          <mxGeometry x="0.12" y="2" relative="1" as="geometry">
            <mxPoint as="offset" />
          </mxGeometry>
        </mxCell>
        <mxCell id="GiRHvkRfX_-VjHIujBZW-10" value="" style="strokeWidth=1;shadow=0;dashed=0;align=center;html=1;shape=mxgraph.mockup.containers.browserWindow;rSize=0;strokeColor=#666666;strokeColor2=#008cff;strokeColor3=#c4c4c4;mainText=,;recursiveResize=0;" vertex="1" parent="1">
          <mxGeometry x="850" y="500" width="290" height="120" as="geometry" />
        </mxCell>
        <mxCell id="GiRHvkRfX_-VjHIujBZW-11" value="&lt;span style=&quot;font-size: 13px&quot;&gt;Admin Console&lt;/span&gt;" style="strokeWidth=1;shadow=0;dashed=0;align=center;html=1;shape=mxgraph.mockup.containers.anchor;fontSize=17;fontColor=#666666;align=left;" vertex="1" parent="GiRHvkRfX_-VjHIujBZW-10">
          <mxGeometry x="60" y="12" width="110" height="26" as="geometry" />
        </mxCell>
        <mxCell id="GiRHvkRfX_-VjHIujBZW-12" value="&lt;font style=&quot;font-size: 11px&quot;&gt;https://admin.patsnap.com&lt;/font&gt;" style="strokeWidth=1;shadow=0;dashed=0;align=center;html=1;shape=mxgraph.mockup.containers.anchor;rSize=0;fontSize=17;fontColor=#666666;align=left;" vertex="1" parent="GiRHvkRfX_-VjHIujBZW-10">
          <mxGeometry x="120" y="60" width="160" height="26" as="geometry" />
        </mxCell>
        <mxCell id="GiRHvkRfX_-VjHIujBZW-14" value="Analytics Backend" style="rounded=0;whiteSpace=wrap;html=1;" vertex="1" parent="1">
          <mxGeometry x="495" y="720" width="180" height="50" as="geometry" />
        </mxCell>
        <mxCell id="GiRHvkRfX_-VjHIujBZW-24" style="edgeStyle=orthogonalEdgeStyle;rounded=0;orthogonalLoop=1;jettySize=auto;html=1;exitX=0.5;exitY=1;exitDx=0;exitDy=0;entryX=0.25;entryY=0;entryDx=0;entryDy=0;" edge="1" parent="1" source="GiRHvkRfX_-VjHIujBZW-15" target="GiRHvkRfX_-VjHIujBZW-19">
          <mxGeometry relative="1" as="geometry" />
        </mxCell>
        <mxCell id="GiRHvkRfX_-VjHIujBZW-25" value="Case APIs" style="edgeLabel;html=1;align=center;verticalAlign=middle;resizable=0;points=[];" vertex="1" connectable="0" parent="GiRHvkRfX_-VjHIujBZW-24">
          <mxGeometry x="-0.1622" y="-1" relative="1" as="geometry">
            <mxPoint as="offset" />
          </mxGeometry>
        </mxCell>
        <mxCell id="GiRHvkRfX_-VjHIujBZW-15" value="Passport Backend" style="rounded=0;whiteSpace=wrap;html=1;" vertex="1" parent="1">
          <mxGeometry x="85" y="720" width="180" height="50" as="geometry" />
        </mxCell>
        <mxCell id="GiRHvkRfX_-VjHIujBZW-30" style="edgeStyle=orthogonalEdgeStyle;rounded=0;orthogonalLoop=1;jettySize=auto;html=1;entryX=0.75;entryY=0;entryDx=0;entryDy=0;" edge="1" parent="1" source="GiRHvkRfX_-VjHIujBZW-16" target="GiRHvkRfX_-VjHIujBZW-19">
          <mxGeometry relative="1" as="geometry">
            <Array as="points">
              <mxPoint x="995" y="830" />
              <mxPoint x="725" y="830" />
            </Array>
          </mxGeometry>
        </mxCell>
        <mxCell id="GiRHvkRfX_-VjHIujBZW-31" value="Case APIs" style="edgeLabel;html=1;align=center;verticalAlign=middle;resizable=0;points=[];" vertex="1" connectable="0" parent="GiRHvkRfX_-VjHIujBZW-30">
          <mxGeometry x="-0.1158" y="3" relative="1" as="geometry">
            <mxPoint as="offset" />
          </mxGeometry>
        </mxCell>
        <mxCell id="GiRHvkRfX_-VjHIujBZW-32" style="edgeStyle=orthogonalEdgeStyle;rounded=0;orthogonalLoop=1;jettySize=auto;html=1;entryX=1;entryY=0.5;entryDx=0;entryDy=0;" edge="1" parent="1" source="GiRHvkRfX_-VjHIujBZW-16" target="GiRHvkRfX_-VjHIujBZW-14">
          <mxGeometry relative="1" as="geometry" />
        </mxCell>
        <mxCell id="GiRHvkRfX_-VjHIujBZW-33" value="History APIs" style="edgeLabel;html=1;align=center;verticalAlign=middle;resizable=0;points=[];" vertex="1" connectable="0" parent="GiRHvkRfX_-VjHIujBZW-32">
          <mxGeometry x="0.287" y="3" relative="1" as="geometry">
            <mxPoint x="13" y="12" as="offset" />
          </mxGeometry>
        </mxCell>
        <mxCell id="GiRHvkRfX_-VjHIujBZW-16" value="Admin Backend" style="rounded=0;whiteSpace=wrap;html=1;" vertex="1" parent="1">
          <mxGeometry x="905" y="720" width="180" height="50" as="geometry" />
        </mxCell>
        <mxCell id="GiRHvkRfX_-VjHIujBZW-34" style="edgeStyle=orthogonalEdgeStyle;rounded=0;orthogonalLoop=1;jettySize=auto;html=1;entryX=0.5;entryY=0;entryDx=0;entryDy=0;entryPerimeter=0;" edge="1" parent="1" source="GiRHvkRfX_-VjHIujBZW-19" target="GiRHvkRfX_-VjHIujBZW-21">
          <mxGeometry relative="1" as="geometry" />
        </mxCell>
        <mxCell id="GiRHvkRfX_-VjHIujBZW-19" value="Identity Service" style="rounded=0;whiteSpace=wrap;html=1;" vertex="1" parent="1">
          <mxGeometry x="290" y="880" width="580" height="50" as="geometry" />
        </mxCell>
        <mxCell id="GiRHvkRfX_-VjHIujBZW-21" value="DB" style="strokeWidth=2;html=1;shape=mxgraph.flowchart.database;whiteSpace=wrap;" vertex="1" parent="1">
          <mxGeometry x="550" y="990" width="60" height="60" as="geometry" />
        </mxCell>
      </root>
    </mxGraphModel>
  </diagram>
</mxfile>
